<?xml version="1.0" encoding="UTF-8"?>
<svg id="Calque_2" data-name="Calque 2" xmlns="http://www.w3.org/2000/svg" viewBox="0 0 732.34 706.43">
  <defs>
    <style>
      .cls-1 {
        fill: #149bd8;
      }
    </style>
  </defs>
  <g id="Calque_1-2" data-name="Calque 1">
    <g>
      <path class="cls-1" d="M328.88,478.12c-105.9-35.64-173.59-144.09-208.61-244.89-5.51-15.87-10.24-22.44-3.74-39.23,31.8-82.13,184.92-134.73,265.97-126.01,19.44,2.09,52.71,11,66.54,25.46,4.3,4.5,12.27,33.66,14.46,41.54,11.45,41.07,18.71,83.39,20.93,126.07,13.27,2.73,26.4,5.61,39.33,9.67,66.48,20.84,165.87,81.29,185.73,152.27,1.73,6.18,4.61,18.43,3.46,24.45-.67,3.52-10.9,19.13-13.54,23.46-60.2,98.93-167.45,210.99-294.9,196.07-18.03-2.11-21.26-3.8-32.48-17.52-21.24-25.96-35.31-62.34-40.71-95.29-4.17-25.44-3.72-50.38-2.45-76.05ZM460.03,259.98c-1.75-42.58-10.11-86.26-22.51-127-1.71-5.63-5.1-19.02-7.73-23.27-4.66-7.52-30.72-14.95-39.54-16.46-72.32-12.43-197.6,30.24-241.05,91.42-3.25,4.58-11.64,17.88-11.9,22.97-.16,3.15,7.29,22.05,8.97,26.59,33.3,89.93,91.33,184.79,185.26,219.72,1.14-.63,1.12-1.49,1.45-2.5,3.99-12.35,5.78-29.07,9.54-42.46,2.5-8.9,5.48-17.78,8.48-26.52,1.51-4.41,13.06-32.04,12.01-33.48-27.53,4.47-48.85,18.4-63.81,41.68-2.49,3.88-2.22,8.27-8.15,9.85-10.5,2.78-18.03-4.11-15.8-14.8,3.85-18.46,37.4-44.42,54.1-51.89,14.69-6.57,30.4-8.88,46.26-10.74,5.34-10.64,10.28-21.55,16.03-31.97,7.24-13.15,7.9-18.48,22.86-24.14,14.21-5.38,30.39-7.54,45.53-6.97ZM595.67,564.63c36.96-35.72,66.48-78.92,92.61-122.97-1.2-18.89-12.71-38.54-24.29-53.15-43.11-54.37-167.66-124.29-237.41-100.47-8.69,2.97-8.85,5.41-13.08,12.92-49.71,88.35-90.7,224.39-33.9,317.94,8.95,14.74,14.58,23.78,32.88,25.12,68.55,5.01,135.58-33.37,183.19-79.39Z"/>
      <path class="cls-1" d="M105.44,460.56c-5.05-4.75-9.92-9.78-15.12-14.43-62.71,13.98-117.92-58.08-75.27-111.63,43.73-54.9,139.15-14.17,128.87,55.87-.59,4.05-4,11.14-2.4,14.58l183.02,210.08c1.89,3.27-5.63,10.5-4.09,12.94,18.13,10.7,50.95,36.91,39.13,61.06-17.31,35.36-67.06,7.93-91.24-4.89-31.42-16.67-60.89-38.25-92.31-54.69-9.5-4.97-30.5-16.56-40.74-12.7-17.11,6.45-9.22,26.57-.46,36.73l-6.84,5.05c-8.63-11.45-16.77-27.08-7.42-40.5,14.98-21.51,43.08-4.73,60.46,4.42,36.1,19.01,109.07,73.32,146.44,75.55,18.66,1.11,31.13-12.98,22.93-30.92-3.51-7.67-29.46-32.71-36.86-33.05-5.26-.24-16.03,6.78-23.2,1.11-62.85-56.67-123.2-116.53-184.91-174.59Z"/>
      <path class="cls-1" d="M625.02,57.98l-69.06,48.69,22.97,102.95c.73,30.68-46.5,45.01-65.42,23.36-20.02-22.91,11.28-51.12,35.51-47.01l-23.55-110.99L634.53,0l36.22,157.75c4.49,29.97-36.87,46.1-59.06,31.06-25.77-17.48-5.22-47.83,19.94-51.73,2.52-.39,9.65.92,10.27-1.68l-16.88-77.42Z"/>
      <path class="cls-1" d="M53.02,109.98l18.04-6.59c2.55,7.04,5.19,13.25,9.99,19.06,10.77,13.03,33.65,14.96,28.48,36.52-2.83-5.38-4.21-10.73-9.57-14.43l-27.94-11.08-.97,97.03c-5.76,29.42-61.16,23-54.58-7.58,3.04-14.1,24.15-20.06,36.55-15.94v-97Z"/>
      <path class="cls-1" d="M701.15,248.11l-1.01,14.76c14.67,2.54,28.34,21.13,16.89,34.35-5.44,6.28-14.24,5.73-21.59,7.7-1.7,7.69.11,16.82-4.6,23.4-9.32,13.01-38.89,1.88-38.67-12.85.18-11.56,20.43-11,22.65-.76,1.94,8.98-5,9.41-11.75,8.7-.86-.09-3-1.2-2.05,1.06,1.39,3.3,9.22,6.05,12.6,6.4,18.6,1.92,16.29-12.95,18.13-26.44-4.77-2.59-10.6-3.21-15.79-5.91-13.95-7.24-25.19-24.34-19.18-40.26,5.58-14.78,28.63-19.38,42.09-23.42.64-7.69,1.77-16.03,5.69-22.8,4.91-8.47,23.88-25.1,26.99-7.11,4.14,23.9-8.88,36.81-30.42,43.18ZM703.03,233.97c8.66-1.45,24.2-8.09,25.83-17.75.67-3.95-3.61-7.34-7.24-7.21-10.55.39-19.4,15.12-18.59,24.96ZM697.02,248.98c-43.85,3.83-48.73,40.93-5.51,52.01.85-4.26,4.43-26.96,3.06-29.07-1.64-2.52-11.97,1.39-13.85,4.33-4.93,7.73,5.78,14.11,4.3,15.72-18.86-11.58-10.84-31.84,10.91-30.1l1.09-12.89ZM696.02,300.98c20.77.27,20.55-21.03,3.52-28.02l-3.52,28.02Z"/>
      <path class="cls-1" d="M406.79,438.21c2.74-.15,5.56,1.22,7.75,2.76,11.31,7.97,25.61,26.4,37.48,36.52,19.6,16.7,34.8,24.6,59.24,32.76,16.35,5.46,35.46,8.4,51,14,6.94,2.5,10.07,7.48,8.54,15-.96,4.7-13.02,14.23-17.29,17.7-33.54,27.21-86.54,55.25-127.78,27.84-36.48-24.25-39.15-75.7-34.67-115.29,1.2-10.6,2.28-30.55,15.75-31.28ZM532.02,540.99c-25.34-5.84-51.59-13.82-73.53-27.98-15.74-10.16-28.33-23.16-42.46-35.03-4.01,17.9-3.36,37.09,1.73,54.76,17.26,59.98,80.28,41.15,114.26,8.25Z"/>
      <path class="cls-1" d="M589.67,444.33c10.7,9.84,19.38,35.08,22.2,49.31.3,1.5.22,1.6-1.35,1.35-5.91-.96-30.75-16.86-36.81-21.2-11.12-7.95-28.53-21.47-38.17-30.83-.98-.95-1.89-1.31-1.52-2.98,18.61-4.88,39.87-10.16,55.65,4.35Z"/>
      <path class="cls-1" d="M501.02,422.97c-10.52-1.52-85.95-33.77-85.97-38.5,16.15-7.07,39.96-13.36,56.96-6.98,16.76,6.28,25.62,29.2,29.01,45.48Z"/>
      <path class="cls-1" d="M412.67,233.63c-8.5,8.81-28.29,23.46-40.87,22.12-19.13-2.04-35.2-23.06-41.78-39.76,24.67-2.3,49.91-1.39,73.76,5.73,2.9.87,11.36,3.25,13.23,4.77,1.56,1.27.77.9.02,1.99s-3.39,4.14-4.36,5.15Z"/>
      <path class="cls-1" d="M281.02,231.98c4.69,24.37,3.21,62.14-28.51,64.98-6.44.58-29.38.29-34.5-2.47-1.76-.95-.41-1.26-.02-2.04,9.95-19.64,35.29-42.19,53.32-54.7,1.33-.92,9-6.43,9.71-5.78Z"/>
    </g>
  </g>
</svg>