<?xml version="1.0" encoding="UTF-8"?>
<svg id="Calque_2" data-name="Calque 2" xmlns="http://www.w3.org/2000/svg" viewBox="0 0 593.86 559.63">
  <defs>
    <style>
      .cls-1 {
        fill: #24a19d;
      }
    </style>
  </defs>
  <g id="Calque_1-2" data-name="Calque 1">
    <g>
      <path class="cls-1" d="M486.41,222.44h-4.03c-27.18,23.65-57.37,42.78-89.58,57.62,38.75,24.66,82.03,42.53,127.83,52.09l-14.85-109.96c-6.29,0-12.83.25-19.38.25Z"/>
      <path class="cls-1" d="M85.56,393.3l70.46-1.01,50.83-80.52c-33.97-2.77-66.93-10.07-98.89-21.89l-22.4,103.42Z"/>
      <path class="cls-1" d="M72.72,452.69c11.58-1.01,23.4-1.51,35.48-1.51,63.66,0,125.06,13.08,180.17,26.17l-55.36-63.92-152.49,2.26-7.8,36.99Z"/>
      <path class="cls-1" d="M431.55,503.27h5.54l42.78-87.82,51.59-4.78-8.3-61.9c-53.09-10.32-103.42-31.45-147.46-61.15-43.28,17.11-89.58,26.17-137.39,26.17-4.28,0-8.81-.25-13.08-.25l-49.82,79.01,68.44-1.01,82.28,94.87-.5.25c39,8.81,75.99,16.61,105.94,16.61Z"/>
      <path class="cls-1" d="M553.85,159.54l-22.65,3.52c-14.09,2.26-28.94,3.27-44.79,3.27-44.79,0-91.59-8.56-137.14-17.11-11.83-2.26-23.65-4.28-35.48-6.54-3.27,7.05-7.3,13.84-11.83,20.89,77,12.83,156.26,33.47,232.76,21.64l33.22,244.34-73.23,6.79s-33.97,71.46-49.57,100.15c-103.17,7.55-258.93-77.5-415.7-43.28L97.38,180.17c8.56-4.53,17.36-8.56,26.42-11.58-4.53-6.54-8.56-12.83-12.08-19.38-8.56,3.27-16.86,7.05-24.66,11.32l-9.31,5.03L0,522.64l34.22-7.55c23.4-5.03,47.81-7.55,73.98-7.55,64.17,0,128.59,15.35,185.45,28.94,49.82,11.83,96.63,23.15,137.9,23.15,8.05,0,15.85-.5,23.15-1.26l6.29-.75,132.86-103.92-40.01-294.16Z"/>
      <path class="cls-1" d="M300.45,197.53c20.63,25.42,44.29,48.06,70.46,67.44,27.43-11.32,53.6-25.92,77.5-44.04-36.99-3.02-73.73-9.81-109.21-16.36-13.08-2.52-25.92-4.78-38.75-7.05Z"/>
      <path class="cls-1" d="M353.55,271.26c-28.43-22.14-53.85-48.06-75.49-77.25-10.32,11.83-22.14,24.41-35.23,38.5l-31.71,32.21-31.45-32.21c-12.33-13.08-23.4-24.91-33.22-36.24-6.54,2.01-13.08,4.28-19.38,7.05l-14.09,64.42c39.76,15.1,81.78,22.9,125.06,22.9,39.76.25,78.76-6.54,115.5-19.38Z"/>
      <path class="cls-1" d="M211.12,233.01s2.77-2.52,3.27-3.27c56.37-60.14,88.32-90.34,88.32-138.15C302.72,41.02,261.7,0,211.12,0s-91.59,41.02-91.59,91.59c0,47.56,31.96,78.01,88.32,138.15l3.27,3.27ZM170.1,78.51c0-23.15,18.62-41.77,41.52-41.77s41.52,18.62,41.52,41.77-18.62,41.52-41.52,41.52-41.52-18.62-41.52-41.52Z"/>
    </g>
  </g>
</svg>