<?xml version="1.0" encoding="UTF-8"?>
<svg id="Calque_2" data-name="Calque 2" xmlns="http://www.w3.org/2000/svg" viewBox="0 0 347.87 348.05">
  <defs>
    <style>
      .cls-1 {
        fill: #149;
      }
    </style>
  </defs>
  <g id="Calque_1-2" data-name="Calque 1">
    <g>
      <path class="cls-1" d="M107.86,260.09v-28.82c0-.84,1.91-3.96,2.6-4.89,12.52-16.69,58.77-17.58,77.87-15.69,11.39,1.13,22.82,3.68,33.31,8.23v-41.54c0-.25,1.88-3.97,2.24-4.5,10.36-15.35,52.99-17.73,69.99-16.83,13.4.71,47.68,5.15,52.82,19.79l.75,152.02c-.8,8.73-15.6,13.32-22.93,15.25-29.5,7.79-68.92,6.72-96.62-6.51-34.32,15.04-79.56,15.45-113.78,0-21.15,10.61-47.58,12.58-70.98,10.31-9.16-.89-40.52-6.47-42.89-16.99l-.16-55.24c1.53-14.16,24.23-19.26,35.77-21.11,23.77-3.81,49.49-2.01,72.02,6.52ZM273.88,168.24c-9.98.62-25.75,2.76-34.56,7.36-6.22,3.25-7.17,4.93-.5,8.55,19.32,10.47,72.7,10.51,91.86-.27,6.48-3.65,4.67-5.33-.98-8.28-13.69-7.15-40.48-8.32-55.83-7.36ZM335.41,194.97c-31.53,12.28-70.22,12.29-101.8,0v10.85c16.67,9.45,40.57,11.05,59.54,10.14,13.73-.66,30.48-2.92,42.26-10.14v-10.85ZM335.41,219.67c-31.86,11.31-69.94,11.3-101.79,0,.49,3.02-1.24,9.26,1.19,11.15,7.23,5.6,31.64,8.64,41.06,9.1,12.99.62,48.14-1.19,58.34-9.1,2.44-1.89.7-8.13,1.19-11.15ZM160.1,222.14c-10.12.63-26.18,2.82-35.06,7.61-6.99,3.77-6.42,5.09.5,8.55,20,9.98,71.88,10.44,91.36-.52,6.48-3.65,4.67-5.33-.98-8.28-13.69-7.15-40.48-8.32-55.83-7.36ZM335.41,243.63c-31.83,11.35-69.94,11.28-101.79,0,.49,3.02-1.24,9.26,1.19,11.15,7.23,5.6,31.64,8.64,41.06,9.1,12.99.62,48.14-1.19,58.34-9.1,2.44-1.89.7-8.13,1.19-11.15ZM221.64,248.86c-31.53,12.28-70.22,12.29-101.8,0v10.85c16.67,9.45,40.57,11.05,59.54,10.14,13.73-.66,30.48-2.92,42.26-10.14v-10.85ZM48.57,264.06c-9.04.62-21.86,2.78-30.05,6.63-10.22,4.79-5.32,7.87,2.31,10.94,20.28,8.17,57.36,8.14,77.69.19,7.57-2.96,13.55-6.13,2.87-11.14-14.28-6.7-37.23-7.69-52.82-6.63ZM335.41,267.58c-31.86,11.31-69.94,11.3-101.79,0,.49,3.02-1.24,9.26,1.19,11.15,7.23,5.6,31.64,8.64,41.06,9.1,12.99.62,48.14-1.19,58.34-9.1,2.44-1.89.7-8.13,1.19-11.15ZM221.63,273.57c-31.85,11.3-69.92,11.31-101.79,0,.49,3.02-1.24,9.26,1.19,11.15,7.23,5.6,31.64,8.64,41.06,9.1,12.99.62,48.14-1.19,58.34-9.1,2.44-1.89.7-8.13,1.19-11.15ZM107.86,290.78c-29.43,12.19-66.36,12.13-95.81,0v10.85c5.45,4.41,13.97,6.33,20.82,7.62,18.64,3.52,40.69,3.42,59.14-1.02,5.17-1.24,11.86-3.08,15.85-6.61v-10.85ZM335.41,291.53c-31.86,11.31-69.94,11.3-101.79,0,.49,3.02-1.24,9.26,1.19,11.15,7.23,5.6,31.64,8.64,41.06,9.1,12.99.62,48.14-1.19,58.34-9.1,2.44-1.89.7-8.13,1.19-11.15ZM221.63,297.52c-31.83,11.35-69.94,11.28-101.79,0,.49,3.02-1.24,9.26,1.19,11.15,7.23,5.6,31.64,8.64,41.06,9.1,12.99.62,48.14-1.19,58.34-9.1,2.44-1.89.7-8.13,1.19-11.15ZM107.85,315.49c-29.61,11.17-66.18,11.17-95.8,0,.49,7.43-2.59,9.99,5.04,13.29,20.11,8.71,55.05,8.45,76.12,3.12,3.28-.83,13.98-3.65,14.64-7.07.52-2.71-.33-6.47,0-9.34ZM335.41,315.49c-31.86,11.31-69.94,11.3-101.79,0,.43,2.74-.96,8.97.73,10.86.49.55,5.41,2.73,6.55,3.18,21.29,8.29,60.87,7.94,82.7,1.46,2.64-.78,11.33-3.52,11.82-6.15s-.35-6.49-.01-9.36ZM221.63,321.47c-31.67,11.2-69.77,11.44-101.43,0-2.15,4.8,2.7,6.35,6.39,7.84,21.33,8.61,65.7,8.49,87.21.4,4.09-1.54,9.24-2.99,7.84-8.25Z"/>
      <path class="cls-1" d="M315.58,12.33c-4.92-1.05-5.84-9.94-.41-11.64,3.06-.96,21.82-.74,25.9-.37,3.83.35,5.87,1.61,6.34,5.63.62,5.3.62,19.43,0,24.73-.87,7.43-10.51,7.24-11.83,1.32-.66-2.97.45-6.27-.53-9.19l-121.67,138.07-2.66,1.14-41.7-11.1-64.35,58.44L5.69,227.95c-6.46-.26-7.88-9.33-1.9-11.66l95.5-18.28,66.16-59.6,3.97-.17,38.73,10.73L327.93,12.33c-3.61-.52-9.02.71-12.35,0Z"/>
      <path class="cls-1" d="M50.82,97.14c61.73-3.37,67.59,90.14,6.5,94.83-63.05,4.84-69.41-91.39-6.5-94.83ZM51.59,109.09c-46.35,2.06-43.16,74.71,4.99,70.9,44.68-3.54,41.69-72.97-4.99-70.9Z"/>
      <path class="cls-1" d="M57.49,112.85c1.57,1.28,1.43,4.37,1.86,4.87.27.31,5.38,1.96,7.28,3.58,4.21,3.56,8.13,11.92.84,14.21-6.2,1.95-6.31-4.37-9.96-5.85-2.93-1.18-11.76-1.02-10.91,3.44.49,2.58,13.2,7.55,16.1,9.34,12.58,7.77,13.21,18.85.96,27.41-1.16.81-2.96.94-3.68,1.56-1.85,1.56-1.11,6.74-7.09,6.32-4.75-.33-4.58-5.43-5.83-6.54-.45-.4-3.51-1.08-5.01-2.1-4.28-2.9-10.54-11.68-4.5-15.62,7.56-4.93,8.25,6.8,15.31,7.11,2.31.1,8.49-1.89,7.79-4.84-.41-1.72-17.75-9.32-20.92-12.04-7.77-6.67-6.44-17.44,1.56-23.17,1.45-1.04,5.08-2.12,5.76-2.85.84-.9.63-2.96,2.02-4.35,1.84-1.82,6.43-2.12,8.42-.49Z"/>
    </g>
  </g>
</svg>