<svg width="43" height="43" viewBox="0 0 43 43" fill="none" xmlns="http://www.w3.org/2000/svg">
<g clip-path="url(#clip0_1358_1439)">
<path d="M42.146 33.8039V7.71405C42.146 6.33016 41.5963 5.00296 40.6177 4.0244C39.6392 3.04584 38.312 2.49609 36.9281 2.49609H5.6203C4.23641 2.49609 2.90921 3.04584 1.93065 4.0244C0.952091 5.00296 0.402344 6.33016 0.402344 7.71405L0.402344 33.8039H19.5349V37.2825H10.8383V40.7611H31.7101V37.2825H23.0135V33.8039H42.146ZM5.6203 5.97473H36.9281C37.3894 5.97473 37.8318 6.15798 38.1579 6.48417C38.4841 6.81035 38.6674 7.25276 38.6674 7.71405V23.3679H3.88098V7.71405C3.88098 7.25276 4.06423 6.81035 4.39042 6.48417C4.7166 6.15798 5.15901 5.97473 5.6203 5.97473ZM3.88098 26.8466H38.6674V30.3252H3.88098V26.8466Z" fill="#1663CB"/>
</g>
<defs>
<clipPath id="clip0_1358_1439">
<rect width="41.7437" height="41.7437" fill="white" transform="translate(0.402344 0.756775)"/>
</clipPath>
</defs>
</svg>
