<?xml version="1.0" encoding="UTF-8"?>
<svg id="Calque_2" data-name="Calque 2" xmlns="http://www.w3.org/2000/svg" viewBox="0 0 480.89 477.14">
  <defs>
    <style>
      .cls-1 {
        fill: #1d71a0;
      }
    </style>
  </defs>
  <g id="Calque_1-2" data-name="Calque 1">
    <g>
      <path class="cls-1" d="M192.23,215.16c-.6-.61-5.52,2.22-6.67,2.83-20.44,10.76-58.97,39.14-79.95,41.05-9.43.86-28.79-1.61-38.87-2.88-17.1-2.16-28.11-4.83-38.31-19.69-4.67-6.8-27.25-45.16-28.12-50.87-1.37-8.98,1.9-17.34,9-22.87,2.65-2.06,19.14-11.39,21.9-12.1,17.07-4.37,34.58,13.35,50.29,17.36l62.74-36.35-1.49-2.5c-21.33-24.54-51.12-46.74-71.54-71.46-12.62-15.28-3.88-28.21,5.61-42.44C85.17,2.72,95.9-3.13,111.22,1.68l129.68,74.32,100.67-58.01c15.73-9.42,39.4-7.97,56.92-4.57,42.47,8.24,38.13,63.97,3.43,79.92l-114.51,66.49-.15,147.85c-4.19,25.04-28.57,26.58-49.49,24.48-9.66-.97-16.07-6.86-19.24-15.76-8.79-24.66-15.21-56.85-22.19-82.81-1.62-6.03-3.3-12.21-4.08-18.42ZM221.23,88.14L105.27,20.63c-12.11-3.84-14.75,13.28-20.64,20.52l78.25,79.9,58.36-32.91ZM287.24,136.15l113.02-65.47c14.48-15.22,13.94-34.71-9.64-38.41-11.56-1.81-26.43-3.82-37.07,1.7L85.27,188.68h-8.06s-39.47-19.14-39.47-19.14c-.94,0-15.87,8.41-16.51,9.1-.86.92-1.24,1.63-1,2.92,7.25,12.99,14.22,27.45,22.21,39.9,6.3,9.82,9.37,12.77,21.43,14.57,10.62,1.58,38.16,4.57,47.35,1.59l74.06-41.99.82-1.79c-2.31-7.22-8.15-20.9,1.58-24.77,5.13-2.04,9.39-.93,12.43,3.71l37.62,138.38c.73,1.12,1.88.89,2.97,1.03,3.95.5,16.13.49,19.99-.11s6.41-3.57,6.58-7.42l.07-175.93c4.26-18.17,24.24-9.55,19.92,7.41Z"/>
      <path class="cls-1" d="M376.93,256.85c-3.38,3.14-15.51,2.17-21.97,4.54-27.39,10.04-29.07,49.25-3.1,61.65,13.4,6.4,40.93,2.04,56.87,3.13,93.92,6.46,96.78,139.11,4.99,150.97l-253.43-.53c-10.03-5.87-6.92-17.8,4.54-19.36l248.9-.1c43.13-6.04,63.12-58.15,34.53-91.51-32.55-37.99-80.53-3.74-114.94-31.06-40.6-32.24-13.11-100.11,36.42-95.41,9.36.89,13.88,11.47,7.19,17.69Z"/>
      <path class="cls-1" d="M170.96,442.88c-1.85,1.86-6.63,2.55-9.22,2.32-8.98-.8-7.29-10.06-9.45-16.59-5.28-15.99-18.72-17.83-28.45-29.55-20.25-24.39-13.85-61.44,13.38-77.42,46-26.99,97.29,24.12,71.19,70.19-9,15.89-27.49,20.03-32.95,35.05-1.48,4.08-2.01,13.5-4.5,16ZM162.25,407.15l1.45-.02c14.54-15.98,34.19-19.01,31.52-45.47-4.38-43.34-74.94-31.48-62.31,13.31,4.96,17.6,21.01,18.46,29.34,32.17Z"/>
      <path class="cls-1" d="M370.78,139.72c40.21-37.88,104.45,6.73,82.31,58.8-8.62,20.28-30.9,24.45-36.17,41.83-2.1,6.93-1.16,18.92-12.94,16.6-9.02-1.77-7.4-10.52-9.7-17.33-5.25-15.49-19.08-17.81-28.55-29.45-17.45-21.45-14.91-51.64,5.06-70.45ZM404.06,145.39c-25.06,1-38.83,31.36-23.8,51.24,6.87,9.08,19.33,12.45,25.47,22.51,8.63-11.76,24.92-15.67,29.98-30.01,7.72-21.92-8.27-44.67-31.65-43.74Z"/>
      <path class="cls-1" d="M159.97,352.4c20.78-3.83,23.53,23.5,7.34,27.32-20.07,4.74-23.98-24.26-7.34-27.32Z"/>
      <path class="cls-1" d="M403.99,163.37c19.19-2.84,22.08,27.33,2.39,28.21-17.82.79-20.33-25.55-2.39-28.21Z"/>
    </g>
  </g>
</svg>