<svg xmlns="http://www.w3.org/2000/svg" viewBox="0 0 171.33 51.14"><defs><style>.cls-1{fill:#428fc1;}</style></defs><g id="Calque_2" data-name="Calque 2"><g id="Calque_1-2" data-name="Calque 1"><path class="cls-1" d="M0,7.19A7,7,0,1,1,7.19,14H7A6.64,6.64,0,0,1,0,7.73c0-.16,0-.32,0-.48m11.06,0A4.07,4.07,0,1,0,7,11.31a4.07,4.07,0,0,0,4.06-4.06h0"/><polygon class="cls-1" points="15.99 13.7 15.99 0.67 25.46 0.67 25.46 3.11 18.83 3.11 18.83 5.84 25.32 5.84 25.32 8.28 18.83 8.28 18.83 13.7 15.99 13.7"/><polygon class="cls-1" points="27.45 13.7 27.45 0.67 36.92 0.67 36.92 3.11 30.29 3.11 30.29 5.84 36.77 5.84 36.77 8.28 30.29 8.28 30.29 13.7 27.45 13.7"/><rect class="cls-1" x="38.89" y="0.65" width="2.85" height="13.05"/><path class="cls-1" d="M43.75,7.19A6.7,6.7,0,0,1,50.39.43l.58,0a6.12,6.12,0,0,1,5.59,3.18L54.1,4.81A3.6,3.6,0,0,0,51,2.91a4.28,4.28,0,0,0,0,8.56A3.61,3.61,0,0,0,54.1,9.58l2.46,1.15A6.16,6.16,0,0,1,50.88,14a6.73,6.73,0,0,1-7.2-6.2,4.87,4.87,0,0,1,0-.54"/><polygon class="cls-1" points="58.17 13.7 58.17 0.67 67.63 0.67 67.63 3.11 61.02 3.11 61.02 5.84 67.49 5.84 67.49 8.28 61.02 8.28 61.02 11.26 67.63 11.26 67.63 13.7 58.17 13.7"/><polygon class="cls-1" points="84.24 13.7 77.86 5.2 77.86 13.7 75.02 13.7 75.02 0.67 77.95 0.67 84.15 8.85 84.15 0.67 86.98 0.67 86.98 13.7 84.24 13.7"/><path class="cls-1" d="M98.89,13.7,98,11.49H92.32l-.85,2.21H88.23l5.15-13H97l5.07,13.05ZM95.17,3.43,93,9.05h4.17Z"/><polygon class="cls-1" points="105.16 13.7 105.16 3.11 101.26 3.11 101.26 0.67 111.92 0.67 111.92 3.11 108.03 3.11 108.03 13.7 105.16 13.7"/><rect class="cls-1" x="113.75" y="0.65" width="2.85" height="13.05"/><path class="cls-1" d="M118.61,7.19A7,7,0,1,1,125.79,14h-.23a6.64,6.64,0,0,1-7-6.26c0-.16,0-.32,0-.48m11,0a4.06,4.06,0,0,0-8.11-.55,2.53,2.53,0,0,0,0,.55,4.06,4.06,0,0,0,8.11.54,4.86,4.86,0,0,0,0-.54"/><polygon class="cls-1" points="143.81 13.7 137.43 5.2 137.43 13.7 134.6 13.7 134.6 0.67 137.52 0.67 143.72 8.85 143.72 0.67 146.56 0.67 146.56 13.7 143.81 13.7"/><path class="cls-1" d="M158.45,13.7l-.83-2.21h-5.75L151,13.7H147.8L153,.65h3.62L161.7,13.7ZM154.83,3.43l-2.16,5.62h4.17Z"/><polygon class="cls-1" points="162.8 13.7 162.8 0.67 165.67 0.67 165.67 11.26 171.33 11.26 171.33 13.7 162.8 13.7"/><path class="cls-1" d="M0,32.58v-13H5.28c4.19,0,7.1,2.6,7.1,6.53S9.47,32.58,5.3,32.58Zm9.47-6.52A3.85,3.85,0,0,0,5.86,22a3.47,3.47,0,0,0-.56,0H2.86v8.15H5.28a4,4,0,0,0,4.19-3.71c0-.13,0-.25,0-.37"/><path class="cls-1" d="M14.4,27.36V19.53h2.89v7.75a3.14,3.14,0,0,0,6.27,0V19.53h2.91v7.83c0,3.23-1.95,5.42-6,5.42s-6-2.23-6-5.42"/><polygon class="cls-1" points="37.37 32.58 37.37 21.97 33.47 21.97 33.47 19.53 44.13 19.53 44.13 21.97 40.24 21.97 40.24 32.58 37.37 32.58"/><path class="cls-1" d="M44.83,26.07a7,7,0,1,1,7.24,6.74h-.25a6.65,6.65,0,0,1-7-6.29c0-.15,0-.3,0-.45m11.06,0a4.07,4.07,0,1,0-4.07,4.29,4,4,0,0,0,4.08-3.91c0-.13,0-.25,0-.38"/><path class="cls-1" d="M60.82,27.36V19.53h2.89v7.75a3.14,3.14,0,0,0,6.27,0V19.53h2.91v7.83c0,3.23-2,5.42-6,5.42s-6-2.23-6-5.42"/><path class="cls-1" d="M83.1,32.58,80.48,28h-2.1v4.63H75.55v-13H81.8a4.15,4.15,0,0,1,4.5,3.78c0,.14,0,.29,0,.43a3.79,3.79,0,0,1-3,3.87l3,5Zm.29-8.86a1.81,1.81,0,0,0-1.8-1.81H78.38v3.5h3a1.8,1.8,0,0,0,2-1.61,1.28,1.28,0,0,0,0-.19"/><rect class="cls-1" x="88.43" y="19.53" width="2.85" height="13.05"/><path class="cls-1" d="M93,30.73l1.57-2.16a5.91,5.91,0,0,0,4.25,1.8c1.59,0,2.33-.68,2.33-1.44,0-2.28-7.7-.69-7.7-5.6,0-2.17,1.92-4,5.08-4a7.54,7.54,0,0,1,5.2,1.81l-1.57,2.08a5.82,5.82,0,0,0-3.9-1.43c-1.2,0-1.81.5-1.81,1.28,0,2.06,7.68.67,7.68,5.53,0,2.39-1.81,4.19-5.42,4.19A7.76,7.76,0,0,1,93,30.73"/><polygon class="cls-1" points="117.59 32.58 117.59 23.18 113.83 32.58 112.59 32.58 108.81 23.18 108.81 32.58 105.96 32.58 105.96 19.53 109.95 19.53 113.2 27.7 116.45 19.53 120.47 19.53 120.47 32.58 117.59 32.58"/><polygon class="cls-1" points="123.12 32.58 123.12 19.53 132.57 19.53 132.57 21.97 125.96 21.97 125.96 24.72 132.45 24.72 132.45 27.16 125.96 27.16 125.96 30.14 132.57 30.14 132.57 32.58 123.12 32.58"/><path class="cls-1" d="M1.16,43.89v4.77H0V37.82H4a3.4,3.4,0,0,1,2.41.79,3.36,3.36,0,0,1,.25,4.18A3,3,0,0,1,5,43.8l2.57,4.88H6.31L3.85,43.91Zm2.78-1a2.41,2.41,0,0,0,1.63-.53,1.89,1.89,0,0,0,.59-1.5,2,2,0,0,0-.57-1.59,2.45,2.45,0,0,0-1.65-.5H1.16V42.9Z"/><path class="cls-1" d="M13.14,37.8a3.74,3.74,0,0,1,2.75,1,4.3,4.3,0,0,1,1,3.17V44.5a4.24,4.24,0,0,1-1,3.15,3.74,3.74,0,0,1-2.75,1H9.53V37.82Zm2.6,6.76V42a3.61,3.61,0,0,0-.67-2.4,2.37,2.37,0,0,0-1.91-.76H10.59v8.78h2.57C14.87,47.61,15.74,46.6,15.74,44.56Z"/><path class="cls-1" d="M20.17,47.21v1.45H18.78V47.21Z"/><path class="cls-1" d="M22,44.7V41.81a4.12,4.12,0,0,1,1-3.16,3.79,3.79,0,0,1,2.78-1,4.39,4.39,0,0,1,1.93.39,3.09,3.09,0,0,1,1.3,1.18,3.26,3.26,0,0,1,.47,1.8H28.41a2.23,2.23,0,0,0-.69-1.68,2.76,2.76,0,0,0-1.81-.61,2.57,2.57,0,0,0-2,.74,3.45,3.45,0,0,0-.69,2.42v2.8c0,2,.88,3,2.69,3a2.64,2.64,0,0,0,1.81-.6,2.11,2.11,0,0,0,.68-1.66h1.13a3.16,3.16,0,0,1-1,2.42,3.82,3.82,0,0,1-2.67.9,3.83,3.83,0,0,1-2.79-1A4.17,4.17,0,0,1,22,44.7Z"/><path class="cls-1" d="M31.6,45.48V43.83a3.3,3.3,0,0,1,.84-2.47,3.07,3.07,0,0,1,2.24-.8,3,3,0,0,1,2.2.8,3.25,3.25,0,0,1,.81,2.47v1.65A3.29,3.29,0,0,1,36.88,48a3.08,3.08,0,0,1-2.2.8A3.17,3.17,0,0,1,32.44,48,3.34,3.34,0,0,1,31.6,45.48Zm5,0V44a2.62,2.62,0,0,0-.53-1.81,1.92,1.92,0,0,0-1.42-.52,2,2,0,0,0-1.47.52A2.5,2.5,0,0,0,32.69,44v1.5a2.61,2.61,0,0,0,.52,1.81,2.08,2.08,0,0,0,1.47.52,1.92,1.92,0,0,0,1.42-.52,2.66,2.66,0,0,0,.44-1.88Z"/><path class="cls-1" d="M40.77,40.67v1a2.25,2.25,0,0,1,.9-.8,3,3,0,0,1,1.26-.27,2.6,2.6,0,0,1,2,.74,3,3,0,0,1,.68,2.1v5.24H44.51v-5.1a2.16,2.16,0,0,0-.49-1.5,2,2,0,0,0-2.71,0,2.07,2.07,0,0,0-.53,1.5v5.1H39.72v-8Z"/><path class="cls-1" d="M47.87,49H49a1.23,1.23,0,0,0,.54.85,2.08,2.08,0,0,0,1.21.32c1.25,0,1.81-.7,1.81-2.09V47a2.18,2.18,0,0,1-.87.86,2.58,2.58,0,0,1-1.28.31,2.64,2.64,0,0,1-2-.79,3.62,3.62,0,0,1-.74-2.5v-1.1a3.59,3.59,0,0,1,.74-2.47,2.61,2.61,0,0,1,2-.8,2.32,2.32,0,0,1,2.15,1.21v-1.1h1.08V48a3.19,3.19,0,0,1-.77,2.27,2.84,2.84,0,0,1-2.19.83,3.16,3.16,0,0,1-2-.56A2.07,2.07,0,0,1,47.87,49Zm4.71-4.25v-.87a2.89,2.89,0,0,0-.49-1.8,1.79,1.79,0,0,0-1.44-.67c-1.23,0-1.81.79-1.81,2.38v1c0,1.59.58,2.39,1.81,2.39a1.8,1.8,0,0,0,1.5-.67,2.74,2.74,0,0,0,.38-1.72Z"/><path class="cls-1" d="M55.73,45.48V43.83a3.21,3.21,0,0,1,.83-2.47,3.07,3.07,0,0,1,2.22-.8,3,3,0,0,1,2.2.8,3.3,3.3,0,0,1,.84,2.47v1.65A3.3,3.3,0,0,1,61,48a3,3,0,0,1-2.2.8,2.83,2.83,0,0,1-3.05-3.27Zm5,0V44a2.5,2.5,0,0,0-.52-1.81,1.94,1.94,0,0,0-1.43-.52,2,2,0,0,0-1.46.52A2.62,2.62,0,0,0,56.79,44v1.5a2.69,2.69,0,0,0,.53,1.81,2.05,2.05,0,0,0,1.46.52,1.94,1.94,0,0,0,1.43-.52,2.6,2.6,0,0,0,.52-1.88Z"/></g></g></svg>